<svg width="29" height="19" viewBox="0 0 29 19" fill="none" xmlns="http://www.w3.org/2000/svg">
<path d="M10.397 17.3424C11.1593 17.1836 11.8263 16.8871 12.3874 16.4636C12.885 16.0931 13.2979 15.6272 13.6367 15.0767C14.1555 14.2508 14.4202 13.3191 14.4202 12.271C14.4202 11.2651 14.1873 10.4076 13.732 9.69819C13.2768 8.98882 12.5992 8.47003 11.6992 8.14182C12.2921 7.84537 12.7368 7.50659 13.0438 7.13602C13.5838 6.49018 13.8591 5.622 13.8591 4.55266C13.8591 3.51508 13.5944 2.61514 13.0544 1.87401C12.1651 0.656448 10.6405 0.0317626 8.50179 0H0V17.5753H7.91948C8.80883 17.5753 9.63466 17.5012 10.397 17.3424ZM3.49389 3.04922H7.31599C8.16299 3.04922 8.85118 3.14451 9.39114 3.3245C10.0264 3.58919 10.3334 4.12915 10.3334 4.94439C10.3334 5.68552 10.0899 6.19371 9.61348 6.49016C9.13705 6.77603 8.52297 6.92426 7.75008 6.92426H3.47271V3.04922H3.49389ZM3.49389 14.5261V9.83583H7.82419C8.5759 9.84642 9.16881 9.9417 9.58172 10.1323C10.3228 10.4711 10.704 11.1063 10.704 12.0169C10.704 13.0968 10.3228 13.8273 9.54996 14.2085C9.12646 14.4202 8.53355 14.5155 7.77125 14.5155H3.49389V14.5261Z" fill="white"/>
<path d="M17.3842 16.4214C18.7076 17.4908 20.2322 18.0202 21.958 18.0202C24.0543 18.0202 25.6848 17.3849 26.8494 16.125C27.6011 15.3309 28.0141 14.5474 28.1093 13.7746H24.6472C24.4461 14.1557 24.2131 14.4522 23.9484 14.6639C23.4614 15.0662 22.8367 15.2568 22.0639 15.2568C21.3333 15.2568 20.7087 15.098 20.1899 14.7698C19.3323 14.2404 18.8876 13.3299 18.8347 12.0276H28.2999C28.3211 10.9053 28.2787 10.0477 28.1835 9.44426C28.0246 8.42785 27.6753 7.5279 27.1459 6.75501C26.553 5.87625 25.8118 5.24099 24.9013 4.82807C23.9908 4.42575 22.9744 4.22461 21.8415 4.22461C19.9358 4.22461 18.39 4.82808 17.1936 6.02447C15.9972 7.22086 15.4043 8.95723 15.4043 11.2018C15.4043 13.6158 16.0607 15.3521 17.3842 16.4214ZM19.8193 7.78201C20.2957 7.28439 20.9733 7.04087 21.8521 7.04087C22.6568 7.04087 23.3238 7.2738 23.8743 7.73965C24.4143 8.2055 24.7213 8.89369 24.7849 9.79363H18.9299C19.0358 8.94663 19.3323 8.27962 19.8193 7.78201Z" fill="white"/>
<path d="M25.4411 1.00586H17.7969V2.78456H25.4411V1.00586Z" fill="white"/>
</svg>
